<svg id="Layer_1" data-name="Layer 1" xmlns="http://www.w3.org/2000/svg" width="128" height="128" viewBox="0 0 128 128"><defs><style>.cls-1{fill:#0677a1;}.cls-2{fill:#fff;}</style></defs><title>bInvoice_Customer_Default_Card</title><circle class="cls-1" cx="64" cy="64" r="64"/><path class="cls-2" d="M98.93,95H29.32l-.15-1.25C28,82.24,37.79,76.07,40.67,75.32l1.2-.27a32.4,32.4,0,0,1,4.18-.9,10.27,10.27,0,0,0,7.44-4.71,10,10,0,0,1-3.41-6c0-.17-.07-.33-.1-.48a15,15,0,0,0-2-2.63,15,15,0,0,1-2.5-3.45c-.71-1.77,0-3.35.65-4.61a8.93,8.93,0,0,0,.56-1.34,19.54,19.54,0,0,0-.92-3.58,29.31,29.31,0,0,1-1.67-8c0-5.56,13.15-14.38,18.33-14.38s19.17,10.38,19.17,15.4a26.92,26.92,0,0,1-1,6.22,22,22,0,0,0-.82,4.75,5.17,5.17,0,0,0,0,.82c.82.55,1.38,1.3,1.67,3.17A5.9,5.9,0,0,1,81,59a12.2,12.2,0,0,1-.83,1.36,5.15,5.15,0,0,0-1.07,2.38c-.32,2.58-2.44,3.93-4.31,5.11a17.63,17.63,0,0,0-2.45,1.76c1.23,2.65,6.78,4.13,11.31,5.34,1.92.51,3.73,1,5.23,1.55a11.81,11.81,0,0,1,2.49,1.21c4.67,3.15,7,14.27,7.22,15.55ZM32.27,92H95C94,88,91.89,81.86,89.55,80.28a9.14,9.14,0,0,0-1.81-.82c-1.36-.5-3.1-.95-4.94-1.44-6.1-1.63-13-3.47-13.85-8.59l-.12-.72.48-.56a15.93,15.93,0,0,1,3.74-3c1.69-1.07,2.73-1.78,2.86-2.82a8.16,8.16,0,0,1,1.58-3.76,9.45,9.45,0,0,0,.62-1,2.75,2.75,0,0,0,.25-1.81,2.78,2.78,0,0,0-.27-1h0l-.07,0c-1-.69-1.42-1.59-1.42-3.43a24.13,24.13,0,0,1,.9-5.49,24.63,24.63,0,0,0,.91-5.48c0-2.55-11.87-12.22-16-12.22s-15.13,8.06-15.13,11.2a27.14,27.14,0,0,0,1.53,7.05c.84,2.72,1.26,4.2.94,5.35A11.44,11.44,0,0,1,49,53.59c-.47,1-.75,1.63-.57,2.08a15.33,15.33,0,0,0,2,2.57c1.49,1.74,2.41,2.87,2.67,4,0,.18.08.38.13.58.29,1.4.61,3,3.41,5.16l1.19.93-1,1.46c-1.74,2.49-4.37,6.25-10.33,7a30.52,30.52,0,0,0-3.77.84l-1.21.23C40.24,78.72,32.15,83,32.27,92Z"/><path class="cls-2" d="M63.46,81.74c-3.63,0-6.76-3.58-7.11-4a1.58,1.58,0,0,1,.19-2.24,1.61,1.61,0,0,1,2.25.19c.64.74,2.85,2.85,4.66,2.85s4.12-2.13,4.78-2.87a1.61,1.61,0,0,1,2.26-.15,1.58,1.58,0,0,1,.16,2.24C70.3,78.18,67.07,81.74,63.46,81.74Z"/></svg>