<?xml version="1.0" encoding="utf-8"?>
<!-- Generator: Adobe Illustrator 18.1.1, SVG Export Plug-In . SVG Version: 6.00 Build 0)  -->
<svg version="1.1" id="Layer_1" xmlns="http://www.w3.org/2000/svg" xmlns:xlink="http://www.w3.org/1999/xlink" x="0px" y="0px"
	 viewBox="0 0 150 150" enable-background="new 0 0 150 150" xml:space="preserve">
<g>
	<path fill="none" stroke="#FFFFFF" stroke-width="3" stroke-miterlimit="10" d="M24.2,63.4c0-9.8,7.9-17.7,17.7-17.7
		c9.8,0,17.7,7.9,17.7,17.7"/>
	<circle fill="none" stroke="#FFFFFF" stroke-width="3" stroke-miterlimit="10" cx="41.9" cy="32.7" r="13"/>
</g>
<path fill="none" stroke="#FFFFFF" stroke-width="3" stroke-miterlimit="10" d="M134.3-13.6"/>
<g>
	<path fill="none" stroke="#FFFFFF" stroke-width="3.831" stroke-miterlimit="10" d="M74.6,87.7"/>
	<path fill="none" stroke="#FFFFFF" stroke-width="2.8733" stroke-miterlimit="10" d="M74.3,87.8"/>
	<path fill="none" stroke="#FFFFFF" stroke-width="2.8733" stroke-miterlimit="10" d="M74.3,84"/>
	<path fill="none" stroke="#FFFFFF" stroke-width="2.8733" stroke-miterlimit="10" d="M74.3,105.5"/>
	<polygon fill="none" stroke="#FFFFFF" stroke-width="3" stroke-miterlimit="10" points="54.4,89 74.4,72.5 94.4,89 94.4,112.3 
		74.4,128.7 54.4,112.1 	"/>
	<polyline fill="none" stroke="#FFFFFF" stroke-width="2.8733" stroke-miterlimit="10" points="94.2,89 74.3,105.5 54.4,89 	"/>
	<path fill="none" stroke="#FFFFFF" stroke-width="2.8733" stroke-miterlimit="10" d="M74.3,100.6"/>
	<line fill="none" stroke="#FFFFFF" stroke-width="2.8733" stroke-miterlimit="10" x1="74.3" y1="105.5" x2="74.3" y2="128.7"/>
</g>
<polygon fill="none" stroke="#FFFFFF" stroke-width="3" stroke-miterlimit="10" points="85.8,60.9 85.8,28.7 96.1,37.7 96.1,28.7 
	107.2,37.7 107.2,37.5 107.2,28.7 117.5,37.7 117.5,19.7 123.9,19.7 123.9,60.9 "/>
</svg>
