<svg id="Layer_1" data-name="Layer 1" xmlns="http://www.w3.org/2000/svg" width="128" height="128" viewBox="0 0 128 128"><defs><style>.cls-1{fill:#0677a1;}.cls-2{fill:#fff;}</style></defs><title>bInvoice_Item_Default_Card</title><circle class="cls-1" cx="64" cy="64" r="64"/><g id="Icons"><g id="icon-tag"><g id="ios-_-icon-_-tag" data-name="ios-/-icon-/-tag"><g id="Group"><path class="cls-2" d="M69.43,102a8.49,8.49,0,0,1-6-2.49L32.52,68.65A8.55,8.55,0,0,1,30,62.57v-24A8.57,8.57,0,0,1,38.56,30h24a8.51,8.51,0,0,1,6,2.49L99.48,63.35h0A8.65,8.65,0,0,1,102,69.43a8.39,8.39,0,0,1-2.54,6.07l-24,24A8.38,8.38,0,0,1,69.43,102Zm-31-68.73a5.14,5.14,0,0,0-5.14,5.14v24a5.14,5.14,0,0,0,1.52,3.66L65.71,96.93a5.27,5.27,0,0,0,7.25,0L97,72.9a5,5,0,0,0,1.52-3.63A5.18,5.18,0,0,0,97,65.62h0L66.1,34.76a5.11,5.11,0,0,0-3.63-1.49Zm5.29,17.3a6.86,6.86,0,1,1,6.85-6.86A6.86,6.86,0,0,1,43.7,50.57Zm0-10.29a3.43,3.43,0,1,0,3.43,3.43A3.43,3.43,0,0,0,43.7,40.29Z"/><rect class="cls-2" x="58.28" y="72.86" width="32.5" height="3.43" transform="translate(-30.9 74.49) rotate(-44.97)"/><rect class="cls-2" x="48" y="62.57" width="32.5" height="3.43" transform="translate(-26.64 64.22) rotate(-44.97)"/></g></g></g></g></svg>