<svg width="756" height="346" viewBox="0 0 756 346" fill="none" xmlns="http://www.w3.org/2000/svg">
<mask id="mask0" mask-type="alpha" maskUnits="userSpaceOnUse" x="0" y="0" width="756" height="346">
<rect width="756" height="346" fill="#C4C4C4"/>
</mask>
<g mask="url(#mask0)">
<path d="M752.373 346H11.9071C10.6564 339.71 10 333.2 10 326.533C10 272.778 52.6845 229.2 105.339 229.2C117.688 229.2 129.489 231.597 140.32 235.96C141.875 135.195 222.37 54 321.441 54C409.431 54 482.768 118.049 499.162 202.971C517.539 190.828 539.446 183.778 562.966 183.778C624.955 183.778 675.74 232.749 680.229 294.864C683.441 294.354 686.732 294.089 690.085 294.089C720.834 294.089 746.484 316.382 752.373 346Z" fill="url(#paint0_linear)"/>
<g style="mix-blend-mode:multiply" filter="url(#filter0_dd)">
<path d="M681.435 230.52H615.616C615.505 229.951 615.446 229.363 615.446 228.76C615.446 223.901 619.241 219.962 623.921 219.962C625.019 219.962 626.068 220.178 627.03 220.573C627.169 211.464 634.324 204.124 643.13 204.124C650.951 204.124 657.47 209.914 658.927 217.591C660.561 216.493 662.508 215.856 664.599 215.856C670.109 215.856 674.623 220.282 675.022 225.897C675.308 225.851 675.6 225.827 675.898 225.827C678.632 225.827 680.912 227.842 681.435 230.52Z" fill="white"/>
</g>
<g filter="url(#filter1_b)">
<path d="M681.435 230.52H615.616C615.505 229.951 615.446 229.363 615.446 228.76C615.446 223.901 619.241 219.962 623.921 219.962C625.019 219.962 626.068 220.178 627.03 220.573C627.169 211.464 634.324 204.124 643.13 204.124C650.951 204.124 657.47 209.914 658.927 217.591C660.561 216.493 662.508 215.856 664.599 215.856C670.109 215.856 674.623 220.282 675.022 225.897C675.308 225.851 675.6 225.827 675.898 225.827C678.632 225.827 680.912 227.842 681.435 230.52Z" fill="url(#paint1_linear)"/>
</g>
<g style="mix-blend-mode:hard-light" filter="url(#filter2_ii)">
<path d="M681.435 230.52H615.616C615.505 229.951 615.446 229.363 615.446 228.76C615.446 223.901 619.241 219.962 623.921 219.962C625.019 219.962 626.068 220.178 627.03 220.573C627.169 211.464 634.324 204.124 643.13 204.124C650.951 204.124 657.47 209.914 658.927 217.591C660.561 216.493 662.508 215.856 664.599 215.856C670.109 215.856 674.623 220.282 675.022 225.897C675.308 225.851 675.6 225.827 675.898 225.827C678.632 225.827 680.912 227.842 681.435 230.52Z" fill="#808080"/>
</g>
<g style="mix-blend-mode:multiply" filter="url(#filter3_dd)">
<path d="M221.164 133.186H129.017C128.861 132.405 128.78 131.595 128.78 130.767C128.78 124.085 134.092 118.669 140.644 118.669C142.181 118.669 143.649 118.967 144.997 119.509C145.191 106.985 155.208 96.8927 167.537 96.8927C178.487 96.8927 187.613 104.854 189.653 115.409C191.94 113.9 194.666 113.023 197.593 113.023C205.307 113.023 211.627 119.11 212.186 126.831C212.586 126.767 212.995 126.734 213.412 126.734C217.239 126.734 220.431 129.505 221.164 133.186Z" fill="white"/>
</g>
<g filter="url(#filter4_b)">
<path d="M221.164 133.186H129.017C128.861 132.405 128.78 131.595 128.78 130.767C128.78 124.085 134.092 118.669 140.644 118.669C142.181 118.669 143.649 118.967 144.997 119.509C145.191 106.985 155.208 96.8927 167.537 96.8927C178.487 96.8927 187.613 104.854 189.653 115.409C191.94 113.9 194.666 113.023 197.593 113.023C205.307 113.023 211.627 119.11 212.186 126.831C212.586 126.767 212.995 126.734 213.412 126.734C217.239 126.734 220.431 129.505 221.164 133.186Z" fill="url(#paint2_linear)"/>
</g>
<g style="mix-blend-mode:hard-light" filter="url(#filter5_ii)">
<path d="M221.164 133.186H129.017C128.861 132.405 128.78 131.595 128.78 130.767C128.78 124.085 134.092 118.669 140.644 118.669C142.181 118.669 143.649 118.967 144.997 119.509C145.191 106.985 155.208 96.8927 167.537 96.8927C178.487 96.8927 187.613 104.854 189.653 115.409C191.94 113.9 194.666 113.023 197.593 113.023C205.307 113.023 211.627 119.11 212.186 126.831C212.586 126.767 212.995 126.734 213.412 126.734C217.239 126.734 220.431 129.505 221.164 133.186Z" fill="#808080"/>
</g>
<g style="mix-blend-mode:multiply" filter="url(#filter6_dd)">
<rect x="123.831" y="166.181" width="296.949" height="179.819" rx="4" fill="white"/>
</g>
<g filter="url(#filter7_b)">
<rect x="123.831" y="166.181" width="296.949" height="179.819" rx="4" fill="url(#paint3_linear)"/>
</g>
<g style="mix-blend-mode:hard-light">
<rect x="123.831" y="166.181" width="296.949" height="179.819" rx="4" fill="#808080"/>
</g>
<g style="mix-blend-mode:multiply" filter="url(#filter8_dd)">
<rect x="138.678" y="181.028" width="82.4859" height="145.175" rx="2" fill="white"/>
</g>
<g filter="url(#filter9_b)">
<rect x="138.678" y="181.028" width="82.4859" height="145.175" rx="2" fill="url(#paint4_linear)"/>
</g>
<g style="mix-blend-mode:hard-light">
<rect x="138.678" y="181.028" width="82.4859" height="145.175" rx="2" fill="#808080"/>
</g>
<rect x="148.576" y="260.215" width="62.6893" height="13.1977" rx="1" fill="#004D54"/>
<circle cx="158.475" cy="284.961" r="3.29944" fill="#008489"/>
<circle cx="158.475" cy="222.271" r="3.29944" fill="#008489"/>
<circle cx="158.475" cy="298.158" r="3.29944" fill="#008489"/>
<circle cx="158.475" cy="235.469" r="3.29944" fill="#008489"/>
<circle cx="158.475" cy="311.356" r="3.29944" fill="#008489"/>
<circle cx="158.475" cy="248.667" r="3.29944" fill="#008489"/>
<g style="mix-blend-mode:multiply" filter="url(#filter10_dd)">
<rect x="155.175" y="265.164" width="49.4915" height="3.29944" rx="1.64972" fill="white"/>
</g>
<g filter="url(#filter11_b)">
<rect x="155.175" y="265.164" width="49.4915" height="3.29944" rx="1.64972" fill="url(#paint5_linear)"/>
</g>
<g style="mix-blend-mode:hard-light" filter="url(#filter12_ii)">
<rect x="155.175" y="265.164" width="49.4915" height="3.29944" rx="1.64972" fill="#808080"/>
</g>
<rect x="168.373" y="283.311" width="36.2938" height="3.29944" rx="1.64972" fill="#008489"/>
<rect x="168.373" y="220.622" width="36.2938" height="3.29944" rx="1.64972" fill="#008489"/>
<rect x="168.373" y="296.509" width="36.2938" height="3.29944" rx="1.64972" fill="#008489"/>
<rect x="168.373" y="233.819" width="36.2938" height="3.29944" rx="1.64972" fill="#008489"/>
<rect x="168.373" y="309.706" width="36.2938" height="3.29944" rx="1.64972" fill="#008489"/>
<rect x="168.373" y="247.017" width="36.2938" height="3.29944" rx="1.64972" fill="#008489"/>
<g style="mix-blend-mode:multiply" filter="url(#filter13_dd)">
<rect x="236.011" y="181.028" width="169.921" height="145.175" rx="2" fill="white"/>
</g>
<g filter="url(#filter14_b)">
<rect x="236.011" y="181.028" width="169.921" height="145.175" rx="2" fill="url(#paint6_linear)"/>
</g>
<g style="mix-blend-mode:hard-light">
<rect x="236.011" y="181.028" width="169.921" height="145.175" rx="2" fill="#808080"/>
</g>
<path d="M138.678 183.028C138.678 181.924 139.573 181.028 140.678 181.028H219.164C220.268 181.028 221.164 181.924 221.164 183.028V210.723H138.678V183.028Z" fill="white"/>
<rect x="153.525" y="187.627" width="23.096" height="3.29944" rx="1.64972" fill="#008489"/>
<rect x="153.525" y="194.226" width="39.5932" height="3.29944" rx="1.64972" fill="#008489"/>
<rect x="153.525" y="200.825" width="51.1412" height="3.29944" rx="1.64972" fill="#008489"/>
<rect x="234.362" y="134.836" width="353.04" height="211.164" fill="white"/>
<path d="M234.362 119.04C234.362 116.83 236.152 115.04 238.362 115.04H583.401C585.61 115.04 587.401 116.83 587.401 119.04V134.836H234.362V119.04Z" fill="#008489"/>
<circle cx="575.853" cy="124.938" r="3.29944" fill="#004D54"/>
<circle cx="562.655" cy="124.938" r="3.29944" fill="white"/>
<circle cx="549.458" cy="124.938" r="3.29944" fill="white"/>
<g style="mix-blend-mode:multiply" filter="url(#filter15_dd)">
<rect x="453.774" y="154.633" width="97.3333" height="52.791" rx="2" fill="white"/>
</g>
<g filter="url(#filter16_b)">
<rect x="453.774" y="154.633" width="97.3333" height="52.791" rx="2" fill="url(#paint7_linear)"/>
</g>
<g style="mix-blend-mode:hard-light" filter="url(#filter17_ii)">
<rect x="453.774" y="154.633" width="97.3333" height="52.791" rx="2" fill="#808080"/>
</g>
<circle cx="269.006" cy="202.475" r="4.94915" fill="#00B7C3"/>
<circle cx="285.503" cy="202.475" r="4.94915" fill="#008489"/>
<circle cx="302" cy="202.475" r="4.94915" fill="#004D54"/>
<rect x="405.932" y="233.819" width="29.6949" height="29.6949" rx="2" fill="#008489"/>
<line x1="410.232" y1="229.52" x2="414.831" y2="229.52" stroke="#004D54" stroke-width="2" stroke-linecap="round" stroke-linejoin="round"/>
<line x1="420.13" y1="229.52" x2="431.328" y2="229.52" stroke="#004D54" stroke-width="2" stroke-linecap="round" stroke-linejoin="round"/>
<rect x="369.638" y="233.819" width="29.6949" height="29.6949" rx="2" fill="#008489"/>
<line x1="373.938" y1="229.52" x2="378.537" y2="229.52" stroke="#004D54" stroke-width="2" stroke-linecap="round" stroke-linejoin="round"/>
<line x1="383.836" y1="229.52" x2="395.034" y2="229.52" stroke="#004D54" stroke-width="2" stroke-linecap="round" stroke-linejoin="round"/>
<rect x="442.226" y="233.819" width="29.6949" height="29.6949" rx="2" fill="#008489"/>
<line x1="446.525" y1="229.52" x2="451.124" y2="229.52" stroke="#004D54" stroke-width="2" stroke-linecap="round" stroke-linejoin="round"/>
<line x1="456.424" y1="229.52" x2="467.621" y2="229.52" stroke="#004D54" stroke-width="2" stroke-linecap="round" stroke-linejoin="round"/>
<rect x="485.119" y="233.819" width="29.6949" height="29.6949" rx="2" fill="#008489"/>
<line x1="489.418" y1="229.52" x2="494.017" y2="229.52" stroke="#004D54" stroke-width="2" stroke-linecap="round" stroke-linejoin="round"/>
<line x1="499.316" y1="229.52" x2="510.514" y2="229.52" stroke="#004D54" stroke-width="2" stroke-linecap="round" stroke-linejoin="round"/>
<rect x="521.412" y="233.819" width="29.6949" height="29.6949" rx="2" fill="#008489"/>
<line x1="525.712" y1="229.52" x2="530.311" y2="229.52" stroke="#004D54" stroke-width="2" stroke-linecap="round" stroke-linejoin="round"/>
<line x1="535.61" y1="229.52" x2="546.808" y2="229.52" stroke="#004D54" stroke-width="2" stroke-linecap="round" stroke-linejoin="round"/>
<g style="mix-blend-mode:multiply" filter="url(#filter18_dd)">
<circle cx="310.249" cy="280.011" r="21.4463" fill="white"/>
</g>
<g filter="url(#filter19_b)">
<circle cx="310.249" cy="280.011" r="21.4463" fill="url(#paint8_linear)"/>
</g>
<g style="mix-blend-mode:hard-light" filter="url(#filter20_ii)">
<circle cx="310.249" cy="280.011" r="21.4463" fill="#808080"/>
</g>
<line x1="309.599" y1="271.113" x2="309.599" y2="288.91" stroke="#004D54" stroke-width="2" stroke-linecap="round" stroke-linejoin="round"/>
<line x1="301.35" y1="280.661" x2="319.147" y2="280.661" stroke="#004D54" stroke-width="2" stroke-linecap="round" stroke-linejoin="round"/>
<path fill-rule="evenodd" clip-rule="evenodd" d="M310.249 326.203C335.76 326.203 356.441 305.522 356.441 280.011C356.441 254.5 335.76 233.819 310.249 233.819C284.737 233.819 264.057 254.5 264.057 280.011C264.057 305.522 284.737 326.203 310.249 326.203ZM310.249 309.706C326.649 309.706 339.944 296.411 339.944 280.011C339.944 263.611 326.649 250.316 310.249 250.316C293.849 250.316 280.554 263.611 280.554 280.011C280.554 296.411 293.849 309.706 310.249 309.706Z" fill="#008489"/>
<path d="M342.911 312.674C351.27 304.315 356.441 292.767 356.441 280.011C356.441 254.5 335.76 233.819 310.249 233.819V250.316C326.649 250.316 339.944 263.611 339.944 280.011C339.944 288.211 336.62 295.635 331.246 301.009L342.911 312.674Z" fill="#00B7C3"/>
<path d="M342.911 312.674C334.552 321.033 323.004 326.204 310.249 326.204V309.706C318.449 309.706 325.872 306.383 331.246 301.009L342.911 312.674Z" fill="#004D54"/>
<path d="M310.249 233.819C297.493 233.819 285.945 238.989 277.586 247.349L289.251 259.014C294.625 253.64 302.049 250.316 310.249 250.316V233.819Z" fill="#004D54"/>
<path d="M392.745 310.916L366.339 326.203H554.407L530.509 313.552C527.881 312.161 524.771 312.011 522.022 313.143L503.701 320.687C500.373 322.057 496.565 321.533 493.73 319.315L466.675 298.141C462.991 295.258 457.8 295.314 454.179 298.276L429.363 318.58C426.176 321.188 421.717 321.575 418.128 319.557L402.658 310.854C399.575 309.12 395.806 309.144 392.745 310.916Z" fill="#00B7C3"/>
<path d="M463.672 180.028C463.12 180.028 462.672 180.476 462.672 181.028C462.672 181.581 463.12 182.028 463.672 182.028L463.672 180.028ZM494.074 181.735C494.465 181.345 494.465 180.712 494.074 180.321L487.71 173.957C487.32 173.567 486.687 173.567 486.296 173.957C485.906 174.348 485.906 174.981 486.296 175.371L491.953 181.028L486.296 186.685C485.906 187.076 485.906 187.709 486.296 188.099C486.687 188.49 487.32 188.49 487.71 188.099L494.074 181.735ZM463.672 182.028L493.367 182.028L493.367 180.028L463.672 180.028L463.672 182.028Z" fill="#004D54"/>
<circle cx="509.864" cy="181.028" r="3.29944" fill="#008489"/>
<circle cx="523.062" cy="181.028" r="3.29944" fill="#008489"/>
<circle cx="536.26" cy="181.028" r="3.29944" fill="#004D54"/>
<rect x="264.057" y="157.932" width="34.6441" height="3.29944" fill="#00B7C3"/>
<rect x="264.057" y="167.831" width="117.13" height="6.59887" fill="#008489"/>
<rect x="264.057" y="177.729" width="69.7064" height="6.59887" fill="#008489"/>
<rect x="338.41" y="177.729" width="90.6183" height="6.59887" fill="#0B556A"/>
<g style="mix-blend-mode:multiply" filter="url(#filter21_dd)">
<path fill-rule="evenodd" clip-rule="evenodd" d="M570.904 255.316C570.904 252.555 573.143 250.316 575.904 250.316L617.045 250.316C619.807 250.316 622.045 252.555 622.045 255.316V341C622.045 343.761 619.807 346 617.045 346H575.904C573.143 346 570.904 343.761 570.904 341V255.316Z" fill="white"/>
</g>
<g filter="url(#filter22_b)">
<path fill-rule="evenodd" clip-rule="evenodd" d="M570.904 255.316C570.904 252.555 573.143 250.316 575.904 250.316L617.045 250.316C619.807 250.316 622.045 252.555 622.045 255.316V341C622.045 343.761 619.807 346 617.045 346H575.904C573.143 346 570.904 343.761 570.904 341V255.316Z" fill="url(#paint9_linear)"/>
</g>
<g style="mix-blend-mode:hard-light" filter="url(#filter23_i)">
<path fill-rule="evenodd" clip-rule="evenodd" d="M570.904 255.316C570.904 252.555 573.143 250.316 575.904 250.316L617.045 250.316C619.807 250.316 622.045 252.555 622.045 255.316V341C622.045 343.761 619.807 346 617.045 346H575.904C573.143 346 570.904 343.761 570.904 341V255.316Z" fill="#808080"/>
</g>
<mask id="mask1" mask-type="alpha" maskUnits="userSpaceOnUse" x="575" y="255" width="43" height="87">
<path fill-rule="evenodd" clip-rule="evenodd" d="M575.853 257.266C575.853 256.161 576.749 255.266 577.853 255.266L615.096 255.266C616.201 255.266 617.096 256.161 617.096 257.266V339.051C617.096 340.155 616.201 341.051 615.096 341.051H577.853C576.749 341.051 575.853 340.155 575.853 339.051V257.266Z" fill="white"/>
</mask>
<g mask="url(#mask1)">
<path fill-rule="evenodd" clip-rule="evenodd" d="M584.514 253.616H570.904V266.813H622.045V253.616H608.435L607.577 257.05C607.354 257.94 606.554 258.565 605.636 258.565H587.313C586.395 258.565 585.595 257.94 585.373 257.05L584.514 253.616Z" fill="#008489"/>
<rect x="570.904" y="331.152" width="51.1412" height="11.548" fill="#008489"/>
</g>
<path d="M600.599 281.661H610.497" stroke="#008489" stroke-width="2" stroke-linecap="round" stroke-linejoin="round"/>
<path d="M600.599 299.808H610.497" stroke="#008489" stroke-width="2" stroke-linecap="round" stroke-linejoin="round"/>
<path d="M600.599 317.955H610.497" stroke="#008489" stroke-width="2" stroke-linecap="round" stroke-linejoin="round"/>
<path d="M582.452 281.661L585.751 284.96L590.701 278.362" stroke="#008489" stroke-width="2" stroke-linecap="round" stroke-linejoin="round"/>
<path d="M582.452 299.808L585.751 303.107L590.701 296.508" stroke="#008489" stroke-width="2" stroke-linecap="round" stroke-linejoin="round"/>
<path d="M582.452 317.955L585.751 321.254L590.701 314.655" stroke="#008489" stroke-width="2" stroke-linecap="round" stroke-linejoin="round"/>
<path d="M92.8754 289.91L95.1626 294.014H94.2477V295.838H92.8754V297.527C92.9654 297.591 93.0465 297.663 93.119 297.741C93.5749 298.128 93.8736 298.687 93.9243 299.309L94.5866 307.221L102.211 307.914L102.987 305.52C103.075 305.331 103.324 305.286 103.472 305.434C103.564 305.525 103.586 305.664 103.528 305.779L103.412 306.011C103.3 306.235 103.463 306.498 103.714 306.498C103.804 306.498 103.889 306.463 103.953 306.399L105.399 304.957C105.504 304.853 105.684 304.927 105.684 305.075C105.684 305.111 105.672 305.146 105.65 305.174L102.905 308.606L94.5866 309.991L95.2644 314.839L99.209 324.171C101.861 330.488 101.23 338.116 98.0429 344.182L95.959 343.23C96.955 337.84 95.671 331.897 91.6136 328.199L90.1308 326.847L81.372 344.615H79.2881L84.8451 314.839L86.2343 309.299L89.439 298.742C89.635 298.177 90.0313 297.734 90.5238 297.469L89.6734 294.926L89.5896 294.592C89.0299 292.36 90.5804 290.15 92.8754 289.91Z" fill="#004D54"/>
<path d="M79.2881 344.615H81.372L85.328 346H79.2881V344.615Z" fill="#004D54"/>
<path d="M95.959 343.23L95.2644 345.308L97.3482 346L98.3649 346H102.024L95.959 343.23Z" fill="#004D54"/>
<circle cx="104.034" cy="296.508" r="4.94915" fill="#004D54"/>
<path d="M667.848 289.91L665.561 294.014H666.475V295.838H667.848V297.527C667.758 297.591 667.677 297.663 667.604 297.741C667.148 298.128 666.85 298.687 666.799 299.309L666.137 307.221L658.513 307.914L657.736 305.52C657.648 305.331 657.399 305.286 657.251 305.434C657.16 305.525 657.137 305.664 657.195 305.779L657.311 306.011C657.423 306.235 657.26 306.498 657.009 306.498C656.92 306.498 656.834 306.463 656.77 306.399L655.324 304.957C655.219 304.853 655.04 304.927 655.04 305.075C655.04 305.111 655.051 305.146 655.073 305.174L657.818 308.606L666.137 309.991L665.459 314.839L661.514 324.171C658.862 330.488 659.493 338.116 662.68 344.182L664.764 343.23C663.768 337.84 665.052 331.897 669.11 328.199L670.592 326.847L679.351 344.615H681.435L675.878 314.839L674.489 309.299L671.284 298.742C671.088 298.177 670.692 297.734 670.199 297.469L671.05 294.926L671.134 294.592C671.693 292.36 670.143 290.15 667.848 289.91Z" fill="#004D54"/>
<path d="M681.435 344.615H679.351L675.395 346H681.435V344.615Z" fill="#004D54"/>
<path d="M664.764 343.23L665.459 345.308L663.375 346L662.358 346H658.699L664.764 343.23Z" fill="#004D54"/>
<circle r="4.94915" transform="matrix(-1 0 0 1 656.689 296.508)" fill="#004D54"/>
</g>
<defs>
<filter id="filter0_dd" x="607.446" y="197.124" width="81.9887" height="42.3955" filterUnits="userSpaceOnUse" color-interpolation-filters="sRGB">
<feFlood flood-opacity="0" result="BackgroundImageFix"/>
<feColorMatrix in="SourceAlpha" type="matrix" values="0 0 0 0 0 0 0 0 0 0 0 0 0 0 0 0 0 0 127 0"/>
<feOffset dy="1"/>
<feGaussianBlur stdDeviation="4"/>
<feColorMatrix type="matrix" values="0 0 0 0 0.0196078 0 0 0 0 0.145098 0 0 0 0 0.180392 0 0 0 0.2 0"/>
<feBlend mode="normal" in2="BackgroundImageFix" result="effect1_dropShadow"/>
<feColorMatrix in="SourceAlpha" type="matrix" values="0 0 0 0 0 0 0 0 0 0 0 0 0 0 0 0 0 0 127 0"/>
<feOffset dy="3"/>
<feGaussianBlur stdDeviation="2"/>
<feColorMatrix type="matrix" values="0 0 0 0 0.0196078 0 0 0 0 0.145098 0 0 0 0 0.180392 0 0 0 0.14 0"/>
<feBlend mode="normal" in2="effect1_dropShadow" result="effect2_dropShadow"/>
<feBlend mode="normal" in="SourceGraphic" in2="effect2_dropShadow" result="shape"/>
</filter>
<filter id="filter1_b" x="613.446" y="202.124" width="69.9887" height="30.3955" filterUnits="userSpaceOnUse" color-interpolation-filters="sRGB">
<feFlood flood-opacity="0" result="BackgroundImageFix"/>
<feGaussianBlur in="BackgroundImage" stdDeviation="1"/>
<feComposite in2="SourceAlpha" operator="in" result="effect1_backgroundBlur"/>
<feBlend mode="normal" in="SourceGraphic" in2="effect1_backgroundBlur" result="shape"/>
</filter>
<filter id="filter2_ii" x="615.446" y="204.124" width="65.9887" height="26.3955" filterUnits="userSpaceOnUse" color-interpolation-filters="sRGB">
<feFlood flood-opacity="0" result="BackgroundImageFix"/>
<feBlend mode="normal" in="SourceGraphic" in2="BackgroundImageFix" result="shape"/>
<feColorMatrix in="SourceAlpha" type="matrix" values="0 0 0 0 0 0 0 0 0 0 0 0 0 0 0 0 0 0 127 0" result="hardAlpha"/>
<feOffset dy="1"/>
<feComposite in2="hardAlpha" operator="arithmetic" k2="-1" k3="1"/>
<feColorMatrix type="matrix" values="0 0 0 0 1 0 0 0 0 1 0 0 0 0 1 0 0 0 0.5 0"/>
<feBlend mode="normal" in2="shape" result="effect1_innerShadow"/>
<feColorMatrix in="SourceAlpha" type="matrix" values="0 0 0 0 0 0 0 0 0 0 0 0 0 0 0 0 0 0 127 0" result="hardAlpha"/>
<feOffset/>
<feGaussianBlur stdDeviation="3"/>
<feComposite in2="hardAlpha" operator="arithmetic" k2="-1" k3="1"/>
<feColorMatrix type="matrix" values="0 0 0 0 1 0 0 0 0 1 0 0 0 0 1 0 0 0 1 0"/>
<feBlend mode="normal" in2="effect1_innerShadow" result="effect2_innerShadow"/>
</filter>
<filter id="filter3_dd" x="120.78" y="89.8927" width="108.384" height="52.2938" filterUnits="userSpaceOnUse" color-interpolation-filters="sRGB">
<feFlood flood-opacity="0" result="BackgroundImageFix"/>
<feColorMatrix in="SourceAlpha" type="matrix" values="0 0 0 0 0 0 0 0 0 0 0 0 0 0 0 0 0 0 127 0"/>
<feOffset dy="1"/>
<feGaussianBlur stdDeviation="4"/>
<feColorMatrix type="matrix" values="0 0 0 0 0.0196078 0 0 0 0 0.145098 0 0 0 0 0.180392 0 0 0 0.2 0"/>
<feBlend mode="normal" in2="BackgroundImageFix" result="effect1_dropShadow"/>
<feColorMatrix in="SourceAlpha" type="matrix" values="0 0 0 0 0 0 0 0 0 0 0 0 0 0 0 0 0 0 127 0"/>
<feOffset dy="3"/>
<feGaussianBlur stdDeviation="2"/>
<feColorMatrix type="matrix" values="0 0 0 0 0.0196078 0 0 0 0 0.145098 0 0 0 0 0.180392 0 0 0 0.14 0"/>
<feBlend mode="normal" in2="effect1_dropShadow" result="effect2_dropShadow"/>
<feBlend mode="normal" in="SourceGraphic" in2="effect2_dropShadow" result="shape"/>
</filter>
<filter id="filter4_b" x="126.78" y="94.8927" width="96.3842" height="40.2938" filterUnits="userSpaceOnUse" color-interpolation-filters="sRGB">
<feFlood flood-opacity="0" result="BackgroundImageFix"/>
<feGaussianBlur in="BackgroundImage" stdDeviation="1"/>
<feComposite in2="SourceAlpha" operator="in" result="effect1_backgroundBlur"/>
<feBlend mode="normal" in="SourceGraphic" in2="effect1_backgroundBlur" result="shape"/>
</filter>
<filter id="filter5_ii" x="128.78" y="96.8927" width="92.3842" height="36.2938" filterUnits="userSpaceOnUse" color-interpolation-filters="sRGB">
<feFlood flood-opacity="0" result="BackgroundImageFix"/>
<feBlend mode="normal" in="SourceGraphic" in2="BackgroundImageFix" result="shape"/>
<feColorMatrix in="SourceAlpha" type="matrix" values="0 0 0 0 0 0 0 0 0 0 0 0 0 0 0 0 0 0 127 0" result="hardAlpha"/>
<feOffset dy="1"/>
<feComposite in2="hardAlpha" operator="arithmetic" k2="-1" k3="1"/>
<feColorMatrix type="matrix" values="0 0 0 0 1 0 0 0 0 1 0 0 0 0 1 0 0 0 0.5 0"/>
<feBlend mode="normal" in2="shape" result="effect1_innerShadow"/>
<feColorMatrix in="SourceAlpha" type="matrix" values="0 0 0 0 0 0 0 0 0 0 0 0 0 0 0 0 0 0 127 0" result="hardAlpha"/>
<feOffset/>
<feGaussianBlur stdDeviation="3"/>
<feComposite in2="hardAlpha" operator="arithmetic" k2="-1" k3="1"/>
<feColorMatrix type="matrix" values="0 0 0 0 1 0 0 0 0 1 0 0 0 0 1 0 0 0 1 0"/>
<feBlend mode="normal" in2="effect1_innerShadow" result="effect2_innerShadow"/>
</filter>
<filter id="filter6_dd" x="115.831" y="159.181" width="312.949" height="195.819" filterUnits="userSpaceOnUse" color-interpolation-filters="sRGB">
<feFlood flood-opacity="0" result="BackgroundImageFix"/>
<feColorMatrix in="SourceAlpha" type="matrix" values="0 0 0 0 0 0 0 0 0 0 0 0 0 0 0 0 0 0 127 0"/>
<feOffset dy="1"/>
<feGaussianBlur stdDeviation="4"/>
<feColorMatrix type="matrix" values="0 0 0 0 0.0196078 0 0 0 0 0.145098 0 0 0 0 0.180392 0 0 0 0.2 0"/>
<feBlend mode="normal" in2="BackgroundImageFix" result="effect1_dropShadow"/>
<feColorMatrix in="SourceAlpha" type="matrix" values="0 0 0 0 0 0 0 0 0 0 0 0 0 0 0 0 0 0 127 0"/>
<feOffset dy="3"/>
<feGaussianBlur stdDeviation="2"/>
<feColorMatrix type="matrix" values="0 0 0 0 0.0196078 0 0 0 0 0.145098 0 0 0 0 0.180392 0 0 0 0.14 0"/>
<feBlend mode="normal" in2="effect1_dropShadow" result="effect2_dropShadow"/>
<feBlend mode="normal" in="SourceGraphic" in2="effect2_dropShadow" result="shape"/>
</filter>
<filter id="filter7_b" x="121.831" y="164.181" width="300.949" height="183.819" filterUnits="userSpaceOnUse" color-interpolation-filters="sRGB">
<feFlood flood-opacity="0" result="BackgroundImageFix"/>
<feGaussianBlur in="BackgroundImage" stdDeviation="1"/>
<feComposite in2="SourceAlpha" operator="in" result="effect1_backgroundBlur"/>
<feBlend mode="normal" in="SourceGraphic" in2="effect1_backgroundBlur" result="shape"/>
</filter>
<filter id="filter8_dd" x="130.678" y="174.028" width="98.4859" height="161.175" filterUnits="userSpaceOnUse" color-interpolation-filters="sRGB">
<feFlood flood-opacity="0" result="BackgroundImageFix"/>
<feColorMatrix in="SourceAlpha" type="matrix" values="0 0 0 0 0 0 0 0 0 0 0 0 0 0 0 0 0 0 127 0"/>
<feOffset dy="1"/>
<feGaussianBlur stdDeviation="4"/>
<feColorMatrix type="matrix" values="0 0 0 0 0.0196078 0 0 0 0 0.145098 0 0 0 0 0.180392 0 0 0 0.2 0"/>
<feBlend mode="normal" in2="BackgroundImageFix" result="effect1_dropShadow"/>
<feColorMatrix in="SourceAlpha" type="matrix" values="0 0 0 0 0 0 0 0 0 0 0 0 0 0 0 0 0 0 127 0"/>
<feOffset dy="3"/>
<feGaussianBlur stdDeviation="2"/>
<feColorMatrix type="matrix" values="0 0 0 0 0.0196078 0 0 0 0 0.145098 0 0 0 0 0.180392 0 0 0 0.14 0"/>
<feBlend mode="normal" in2="effect1_dropShadow" result="effect2_dropShadow"/>
<feBlend mode="normal" in="SourceGraphic" in2="effect2_dropShadow" result="shape"/>
</filter>
<filter id="filter9_b" x="136.678" y="179.028" width="86.4859" height="149.175" filterUnits="userSpaceOnUse" color-interpolation-filters="sRGB">
<feFlood flood-opacity="0" result="BackgroundImageFix"/>
<feGaussianBlur in="BackgroundImage" stdDeviation="1"/>
<feComposite in2="SourceAlpha" operator="in" result="effect1_backgroundBlur"/>
<feBlend mode="normal" in="SourceGraphic" in2="effect1_backgroundBlur" result="shape"/>
</filter>
<filter id="filter10_dd" x="147.175" y="258.164" width="65.4915" height="19.2994" filterUnits="userSpaceOnUse" color-interpolation-filters="sRGB">
<feFlood flood-opacity="0" result="BackgroundImageFix"/>
<feColorMatrix in="SourceAlpha" type="matrix" values="0 0 0 0 0 0 0 0 0 0 0 0 0 0 0 0 0 0 127 0"/>
<feOffset dy="1"/>
<feGaussianBlur stdDeviation="4"/>
<feColorMatrix type="matrix" values="0 0 0 0 0.0745098 0 0 0 0 0.219608 0 0 0 0 0.486275 0 0 0 0.2 0"/>
<feBlend mode="normal" in2="BackgroundImageFix" result="effect1_dropShadow"/>
<feColorMatrix in="SourceAlpha" type="matrix" values="0 0 0 0 0 0 0 0 0 0 0 0 0 0 0 0 0 0 127 0"/>
<feOffset dy="3"/>
<feGaussianBlur stdDeviation="2"/>
<feColorMatrix type="matrix" values="0 0 0 0 0.0745098 0 0 0 0 0.219608 0 0 0 0 0.486275 0 0 0 0.14 0"/>
<feBlend mode="normal" in2="effect1_dropShadow" result="effect2_dropShadow"/>
<feBlend mode="normal" in="SourceGraphic" in2="effect2_dropShadow" result="shape"/>
</filter>
<filter id="filter11_b" x="153.175" y="263.164" width="53.4915" height="7.29944" filterUnits="userSpaceOnUse" color-interpolation-filters="sRGB">
<feFlood flood-opacity="0" result="BackgroundImageFix"/>
<feGaussianBlur in="BackgroundImage" stdDeviation="1"/>
<feComposite in2="SourceAlpha" operator="in" result="effect1_backgroundBlur"/>
<feBlend mode="normal" in="SourceGraphic" in2="effect1_backgroundBlur" result="shape"/>
</filter>
<filter id="filter12_ii" x="155.175" y="265.164" width="49.4915" height="3.29944" filterUnits="userSpaceOnUse" color-interpolation-filters="sRGB">
<feFlood flood-opacity="0" result="BackgroundImageFix"/>
<feBlend mode="normal" in="SourceGraphic" in2="BackgroundImageFix" result="shape"/>
<feColorMatrix in="SourceAlpha" type="matrix" values="0 0 0 0 0 0 0 0 0 0 0 0 0 0 0 0 0 0 127 0" result="hardAlpha"/>
<feOffset dy="1"/>
<feComposite in2="hardAlpha" operator="arithmetic" k2="-1" k3="1"/>
<feColorMatrix type="matrix" values="0 0 0 0 1 0 0 0 0 1 0 0 0 0 1 0 0 0 0.5 0"/>
<feBlend mode="normal" in2="shape" result="effect1_innerShadow"/>
<feColorMatrix in="SourceAlpha" type="matrix" values="0 0 0 0 0 0 0 0 0 0 0 0 0 0 0 0 0 0 127 0" result="hardAlpha"/>
<feOffset/>
<feGaussianBlur stdDeviation="3"/>
<feComposite in2="hardAlpha" operator="arithmetic" k2="-1" k3="1"/>
<feColorMatrix type="matrix" values="0 0 0 0 1 0 0 0 0 1 0 0 0 0 1 0 0 0 1 0"/>
<feBlend mode="normal" in2="effect1_innerShadow" result="effect2_innerShadow"/>
</filter>
<filter id="filter13_dd" x="228.011" y="174.028" width="185.921" height="161.175" filterUnits="userSpaceOnUse" color-interpolation-filters="sRGB">
<feFlood flood-opacity="0" result="BackgroundImageFix"/>
<feColorMatrix in="SourceAlpha" type="matrix" values="0 0 0 0 0 0 0 0 0 0 0 0 0 0 0 0 0 0 127 0"/>
<feOffset dy="1"/>
<feGaussianBlur stdDeviation="4"/>
<feColorMatrix type="matrix" values="0 0 0 0 0.0196078 0 0 0 0 0.145098 0 0 0 0 0.180392 0 0 0 0.2 0"/>
<feBlend mode="normal" in2="BackgroundImageFix" result="effect1_dropShadow"/>
<feColorMatrix in="SourceAlpha" type="matrix" values="0 0 0 0 0 0 0 0 0 0 0 0 0 0 0 0 0 0 127 0"/>
<feOffset dy="3"/>
<feGaussianBlur stdDeviation="2"/>
<feColorMatrix type="matrix" values="0 0 0 0 0.0196078 0 0 0 0 0.145098 0 0 0 0 0.180392 0 0 0 0.14 0"/>
<feBlend mode="normal" in2="effect1_dropShadow" result="effect2_dropShadow"/>
<feBlend mode="normal" in="SourceGraphic" in2="effect2_dropShadow" result="shape"/>
</filter>
<filter id="filter14_b" x="234.011" y="179.028" width="173.921" height="149.175" filterUnits="userSpaceOnUse" color-interpolation-filters="sRGB">
<feFlood flood-opacity="0" result="BackgroundImageFix"/>
<feGaussianBlur in="BackgroundImage" stdDeviation="1"/>
<feComposite in2="SourceAlpha" operator="in" result="effect1_backgroundBlur"/>
<feBlend mode="normal" in="SourceGraphic" in2="effect1_backgroundBlur" result="shape"/>
</filter>
<filter id="filter15_dd" x="445.774" y="147.633" width="113.333" height="68.791" filterUnits="userSpaceOnUse" color-interpolation-filters="sRGB">
<feFlood flood-opacity="0" result="BackgroundImageFix"/>
<feColorMatrix in="SourceAlpha" type="matrix" values="0 0 0 0 0 0 0 0 0 0 0 0 0 0 0 0 0 0 127 0"/>
<feOffset dy="1"/>
<feGaussianBlur stdDeviation="4"/>
<feColorMatrix type="matrix" values="0 0 0 0 0.0745098 0 0 0 0 0.219608 0 0 0 0 0.486275 0 0 0 0.2 0"/>
<feBlend mode="normal" in2="BackgroundImageFix" result="effect1_dropShadow"/>
<feColorMatrix in="SourceAlpha" type="matrix" values="0 0 0 0 0 0 0 0 0 0 0 0 0 0 0 0 0 0 127 0"/>
<feOffset dy="3"/>
<feGaussianBlur stdDeviation="2"/>
<feColorMatrix type="matrix" values="0 0 0 0 0.0745098 0 0 0 0 0.219608 0 0 0 0 0.486275 0 0 0 0.14 0"/>
<feBlend mode="normal" in2="effect1_dropShadow" result="effect2_dropShadow"/>
<feBlend mode="normal" in="SourceGraphic" in2="effect2_dropShadow" result="shape"/>
</filter>
<filter id="filter16_b" x="451.774" y="152.633" width="101.333" height="56.791" filterUnits="userSpaceOnUse" color-interpolation-filters="sRGB">
<feFlood flood-opacity="0" result="BackgroundImageFix"/>
<feGaussianBlur in="BackgroundImage" stdDeviation="1"/>
<feComposite in2="SourceAlpha" operator="in" result="effect1_backgroundBlur"/>
<feBlend mode="normal" in="SourceGraphic" in2="effect1_backgroundBlur" result="shape"/>
</filter>
<filter id="filter17_ii" x="453.774" y="154.633" width="97.3333" height="52.791" filterUnits="userSpaceOnUse" color-interpolation-filters="sRGB">
<feFlood flood-opacity="0" result="BackgroundImageFix"/>
<feBlend mode="normal" in="SourceGraphic" in2="BackgroundImageFix" result="shape"/>
<feColorMatrix in="SourceAlpha" type="matrix" values="0 0 0 0 0 0 0 0 0 0 0 0 0 0 0 0 0 0 127 0" result="hardAlpha"/>
<feOffset dy="1"/>
<feComposite in2="hardAlpha" operator="arithmetic" k2="-1" k3="1"/>
<feColorMatrix type="matrix" values="0 0 0 0 1 0 0 0 0 1 0 0 0 0 1 0 0 0 0.5 0"/>
<feBlend mode="normal" in2="shape" result="effect1_innerShadow"/>
<feColorMatrix in="SourceAlpha" type="matrix" values="0 0 0 0 0 0 0 0 0 0 0 0 0 0 0 0 0 0 127 0" result="hardAlpha"/>
<feOffset/>
<feGaussianBlur stdDeviation="3"/>
<feComposite in2="hardAlpha" operator="arithmetic" k2="-1" k3="1"/>
<feColorMatrix type="matrix" values="0 0 0 0 1 0 0 0 0 1 0 0 0 0 1 0 0 0 1 0"/>
<feBlend mode="normal" in2="effect1_innerShadow" result="effect2_innerShadow"/>
</filter>
<filter id="filter18_dd" x="280.802" y="251.565" width="58.8927" height="58.8927" filterUnits="userSpaceOnUse" color-interpolation-filters="sRGB">
<feFlood flood-opacity="0" result="BackgroundImageFix"/>
<feColorMatrix in="SourceAlpha" type="matrix" values="0 0 0 0 0 0 0 0 0 0 0 0 0 0 0 0 0 0 127 0"/>
<feOffset dy="1"/>
<feGaussianBlur stdDeviation="4"/>
<feColorMatrix type="matrix" values="0 0 0 0 0.0745098 0 0 0 0 0.219608 0 0 0 0 0.486275 0 0 0 0.2 0"/>
<feBlend mode="normal" in2="BackgroundImageFix" result="effect1_dropShadow"/>
<feColorMatrix in="SourceAlpha" type="matrix" values="0 0 0 0 0 0 0 0 0 0 0 0 0 0 0 0 0 0 127 0"/>
<feOffset dy="3"/>
<feGaussianBlur stdDeviation="2"/>
<feColorMatrix type="matrix" values="0 0 0 0 0.0745098 0 0 0 0 0.219608 0 0 0 0 0.486275 0 0 0 0.14 0"/>
<feBlend mode="normal" in2="effect1_dropShadow" result="effect2_dropShadow"/>
<feBlend mode="normal" in="SourceGraphic" in2="effect2_dropShadow" result="shape"/>
</filter>
<filter id="filter19_b" x="286.802" y="256.565" width="46.8927" height="46.8927" filterUnits="userSpaceOnUse" color-interpolation-filters="sRGB">
<feFlood flood-opacity="0" result="BackgroundImageFix"/>
<feGaussianBlur in="BackgroundImage" stdDeviation="1"/>
<feComposite in2="SourceAlpha" operator="in" result="effect1_backgroundBlur"/>
<feBlend mode="normal" in="SourceGraphic" in2="effect1_backgroundBlur" result="shape"/>
</filter>
<filter id="filter20_ii" x="288.802" y="258.565" width="42.8927" height="42.8927" filterUnits="userSpaceOnUse" color-interpolation-filters="sRGB">
<feFlood flood-opacity="0" result="BackgroundImageFix"/>
<feBlend mode="normal" in="SourceGraphic" in2="BackgroundImageFix" result="shape"/>
<feColorMatrix in="SourceAlpha" type="matrix" values="0 0 0 0 0 0 0 0 0 0 0 0 0 0 0 0 0 0 127 0" result="hardAlpha"/>
<feOffset dy="1"/>
<feComposite in2="hardAlpha" operator="arithmetic" k2="-1" k3="1"/>
<feColorMatrix type="matrix" values="0 0 0 0 1 0 0 0 0 1 0 0 0 0 1 0 0 0 0.5 0"/>
<feBlend mode="normal" in2="shape" result="effect1_innerShadow"/>
<feColorMatrix in="SourceAlpha" type="matrix" values="0 0 0 0 0 0 0 0 0 0 0 0 0 0 0 0 0 0 127 0" result="hardAlpha"/>
<feOffset/>
<feGaussianBlur stdDeviation="3"/>
<feComposite in2="hardAlpha" operator="arithmetic" k2="-1" k3="1"/>
<feColorMatrix type="matrix" values="0 0 0 0 1 0 0 0 0 1 0 0 0 0 1 0 0 0 1 0"/>
<feBlend mode="normal" in2="effect1_innerShadow" result="effect2_innerShadow"/>
</filter>
<filter id="filter21_dd" x="562.904" y="243.316" width="67.1412" height="111.684" filterUnits="userSpaceOnUse" color-interpolation-filters="sRGB">
<feFlood flood-opacity="0" result="BackgroundImageFix"/>
<feColorMatrix in="SourceAlpha" type="matrix" values="0 0 0 0 0 0 0 0 0 0 0 0 0 0 0 0 0 0 127 0"/>
<feOffset dy="1"/>
<feGaussianBlur stdDeviation="4"/>
<feColorMatrix type="matrix" values="0 0 0 0 0.0196078 0 0 0 0 0.145098 0 0 0 0 0.180392 0 0 0 0.2 0"/>
<feBlend mode="normal" in2="BackgroundImageFix" result="effect1_dropShadow"/>
<feColorMatrix in="SourceAlpha" type="matrix" values="0 0 0 0 0 0 0 0 0 0 0 0 0 0 0 0 0 0 127 0"/>
<feOffset dy="3"/>
<feGaussianBlur stdDeviation="2"/>
<feColorMatrix type="matrix" values="0 0 0 0 0.0196078 0 0 0 0 0.145098 0 0 0 0 0.180392 0 0 0 0.14 0"/>
<feBlend mode="normal" in2="effect1_dropShadow" result="effect2_dropShadow"/>
<feBlend mode="normal" in="SourceGraphic" in2="effect2_dropShadow" result="shape"/>
</filter>
<filter id="filter22_b" x="568.904" y="248.316" width="55.1412" height="99.6836" filterUnits="userSpaceOnUse" color-interpolation-filters="sRGB">
<feFlood flood-opacity="0" result="BackgroundImageFix"/>
<feGaussianBlur in="BackgroundImage" stdDeviation="1"/>
<feComposite in2="SourceAlpha" operator="in" result="effect1_backgroundBlur"/>
<feBlend mode="normal" in="SourceGraphic" in2="effect1_backgroundBlur" result="shape"/>
</filter>
<filter id="filter23_i" x="570.904" y="250.316" width="51.1412" height="95.6836" filterUnits="userSpaceOnUse" color-interpolation-filters="sRGB">
<feFlood flood-opacity="0" result="BackgroundImageFix"/>
<feBlend mode="normal" in="SourceGraphic" in2="BackgroundImageFix" result="shape"/>
<feColorMatrix in="SourceAlpha" type="matrix" values="0 0 0 0 0 0 0 0 0 0 0 0 0 0 0 0 0 0 127 0" result="hardAlpha"/>
<feOffset dy="1"/>
<feComposite in2="hardAlpha" operator="arithmetic" k2="-1" k3="1"/>
<feColorMatrix type="matrix" values="0 0 0 0 1 0 0 0 0 1 0 0 0 0 1 0 0 0 0.5 0"/>
<feBlend mode="normal" in2="shape" result="effect1_innerShadow"/>
</filter>
<linearGradient id="paint0_linear" x1="381.186" y1="54" x2="381.186" y2="346" gradientUnits="userSpaceOnUse">
<stop stop-color="#73E3DF"/>
<stop offset="1" stop-color="#73E3DF" stop-opacity="0.1"/>
</linearGradient>
<linearGradient id="paint1_linear" x1="648.441" y1="230.52" x2="648.441" y2="204.124" gradientUnits="userSpaceOnUse">
<stop stop-color="white" stop-opacity="0.5"/>
<stop offset="1" stop-color="white"/>
</linearGradient>
<linearGradient id="paint2_linear" x1="174.972" y1="133.186" x2="174.972" y2="96.8927" gradientUnits="userSpaceOnUse">
<stop stop-color="white" stop-opacity="0.5"/>
<stop offset="1" stop-color="white"/>
</linearGradient>
<linearGradient id="paint3_linear" x1="272.305" y1="346" x2="272.305" y2="166.181" gradientUnits="userSpaceOnUse">
<stop stop-color="#008489" stop-opacity="0.5"/>
<stop offset="1" stop-color="#008489"/>
</linearGradient>
<linearGradient id="paint4_linear" x1="179.921" y1="326.204" x2="179.921" y2="181.028" gradientUnits="userSpaceOnUse">
<stop stop-color="white" stop-opacity="0.5"/>
<stop offset="1" stop-color="white"/>
</linearGradient>
<linearGradient id="paint5_linear" x1="179.921" y1="268.463" x2="179.921" y2="265.164" gradientUnits="userSpaceOnUse">
<stop stop-color="white" stop-opacity="0.5"/>
<stop offset="1" stop-color="white"/>
</linearGradient>
<linearGradient id="paint6_linear" x1="320.972" y1="326.204" x2="320.972" y2="181.028" gradientUnits="userSpaceOnUse">
<stop stop-color="white" stop-opacity="0.5"/>
<stop offset="1" stop-color="white"/>
</linearGradient>
<linearGradient id="paint7_linear" x1="502.441" y1="207.424" x2="502.441" y2="154.633" gradientUnits="userSpaceOnUse">
<stop stop-color="white" stop-opacity="0.5"/>
<stop offset="1" stop-color="white"/>
</linearGradient>
<linearGradient id="paint8_linear" x1="310.249" y1="301.458" x2="310.249" y2="258.565" gradientUnits="userSpaceOnUse">
<stop stop-color="white" stop-opacity="0.5"/>
<stop offset="1" stop-color="white"/>
</linearGradient>
<linearGradient id="paint9_linear" x1="596.475" y1="250.316" x2="596.475" y2="346" gradientUnits="userSpaceOnUse">
<stop stop-color="white" stop-opacity="0.5"/>
<stop offset="1" stop-color="white"/>
</linearGradient>
</defs>
</svg>
