<?xml version="1.0" encoding="utf-8"?>
<!-- Generator: Adobe Illustrator 18.1.1, SVG Export Plug-In . SVG Version: 6.00 Build 0)  -->
<svg version="1.1" id="Layer_1" xmlns="http://www.w3.org/2000/svg" xmlns:xlink="http://www.w3.org/1999/xlink" x="0px" y="0px"
	 viewBox="51.6 217.6 129.2 129.2" enable-background="new 51.6 217.6 129.2 129.2" xml:space="preserve">
<rect x="51.6" y="217.6" opacity="0.7" fill="#939598" enable-background="new    " width="129.2" height="129.2"/>
<path opacity="0.96" fill="#FFFFFF" enable-background="new    " d="M88.8,267.1c-0.3,16.8,10.1,30.5,23,30.5
	c13.1-0.1,23.9-13.7,24.2-30.7c0.3-16.8-10.1-30.5-23-30.5C99.9,236.5,89.1,250.2,88.8,267.1z"/>
<path opacity="0.96" fill="#FFFFFF" enable-background="new    " d="M170.5,346.8c-2.3-27.5-7.1-49-19.4-49.2
	c-24.6-0.4-18.9,11.6-33.4,11.6c-18.8,0-28.8-12.2-42.9-6.4c-7.8,3.2-8.7,21.2-7.4,44L170.5,346.8z"/>
</svg>
